{
  "accessors": [
    {
      "bufferView": 2,
      "componentType": 5126,
      "count": 10551,
      "max": [
        0.11742834001779556,
        0.0159173421561718,
        0.02962971292436123
      ],
      "min": [
        -0.18736352026462555,
        -0.017838038504123688,
        -0.06942836195230484
      ],
      "type": "VEC3"
    },
    {
      "bufferView": 2,
      "byteOffset": 126612,
      "componentType": 5126,
      "count": 10551,
      "max": [
        1.0,
        1.0,
        1.0
      ],
      "min": [
        -1.0,
        -1.0,
        -1.0
      ],
      "type": "VEC3"
    },
    {
      "bufferView": 3,
      "componentType": 5126,
      "count": 10551,
      "max": [
        1.0,
        1.0,
        1.0,
        1.0
      ],
      "min": [
        -1.0,
        -1.0,
        -1.0,
        -1.0
      ],
      "type": "VEC4"
    },
    {
      "bufferView": 1,
      "componentType": 5126,
      "count": 10551,
      "max": [
        1.9917411804199219,
        0.9958223700523376
      ],
      "min": [
        0.00390625,
        0.0023982618004083633
      ],
      "type": "VEC2"
    },
    {
      "bufferView": 0,
      "componentType": 5125,
      "count": 28107,
      "type": "SCALAR"
    },
    {
      "bufferView": 2,
      "byteOffset": 253224,
      "componentType": 5126,
      "count": 240,
      "max": [
        0.01624082215130329,
        0.006311892531812191,
        0.004769076127558947
      ],
      "min": [
        -0.016350599005818367,
        -0.006311892531812191,
        -0.0029652160592377186
      ],
      "type": "VEC3"
    },
    {
      "bufferView": 2,
      "byteOffset": 256104,
      "componentType": 5126,
      "count": 240,
      "max": [
        1.0,
        1.0,
        1.0
      ],
      "min": [
        -0.8315014839172363,
        -1.0,
        -1.0
      ],
      "type": "VEC3"
    },
    {
      "bufferView": 3,
      "byteOffset": 168816,
      "componentType": 5126,
      "count": 240,
      "max": [
        0.999456524848938,
        0.99997478723526,
        0.8315014243125916,
        1.0
      ],
      "min": [
        -0.9940895438194275,
        -1.0,
        -1.0,
        -1.0
      ],
      "type": "VEC4"
    },
    {
      "bufferView": 1,
      "byteOffset": 84408,
      "componentType": 5126,
      "count": 240,
      "max": [
        1.9920930862426758,
        0.9268600344657898
      ],
      "min": [
        0.00390625,
        0.07959234714508057
      ],
      "type": "VEC2"
    },
    {
      "bufferView": 0,
      "byteOffset": 112428,
      "componentType": 5125,
      "count": 642,
      "type": "SCALAR"
    },
    {
      "bufferView": 2,
      "byteOffset": 258984,
      "componentType": 5126,
      "count": 980,
      "max": [
        0.03108658641576767,
        0.016539787873625755,
        0.016977056860923767
      ],
      "min": [
        -0.06465861201286316,
        -0.016539787873625755,
        -0.013400150462985039
      ],
      "type": "VEC3"
    },
    {
      "bufferView": 2,
      "byteOffset": 270744,
      "componentType": 5126,
      "count": 980,
      "max": [
        1.0,
        1.0,
        0.9999983906745911
      ],
      "min": [
        -1.0,
        -1.0,
        -1.0
      ],
      "type": "VEC3"
    },
    {
      "bufferView": 3,
      "byteOffset": 172656,
      "componentType": 5126,
      "count": 980,
      "max": [
        1.0,
        1.0,
        1.0,
        1.0
      ],
      "min": [
        -1.0,
        -1.0,
        -1.0,
        -1.0
      ],
      "type": "VEC4"
    },
    {
      "bufferView": 1,
      "byteOffset": 86328,
      "componentType": 5126,
      "count": 980,
      "max": [
        1.986008882522583,
        0.9918274283409119
      ],
      "min": [
        0.0078125,
        0.00390625
      ],
      "type": "VEC2"
    },
    {
      "bufferView": 0,
      "byteOffset": 114996,
      "componentType": 5125,
      "count": 2436,
      "type": "SCALAR"
    },
    {
      "bufferView": 2,
      "byteOffset": 282504,
      "componentType": 5126,
      "count": 93,
      "max": [
        0.006138280965387821,
        0.0020112376660108566,
        -0.006518849637359381
      ],
      "min": [
        -0.00711107486858964,
        -0.0020112318452447653,
        -0.028850313276052475
      ],
      "type": "VEC3"
    },
    {
      "bufferView": 2,
      "byteOffset": 283620,
      "componentType": 5126,
      "count": 93,
      "max": [
        1.0,
        1.0,
        0.3895617127418518
      ],
      "min": [
        -1.0,
        -1.0,
        -0.9813939332962036
      ],
      "type": "VEC3"
    },
    {
      "bufferView": 3,
      "byteOffset": 188336,
      "componentType": 5126,
      "count": 93,
      "max": [
        1.0,
        1.0,
        1.0,
        1.0
      ],
      "min": [
        -5.929789494985016e-06,
        -2.484589174400753e-07,
        -5.233603951637633e-05,
        -1.0
      ],
      "type": "VEC4"
    },
    {
      "bufferView": 1,
      "byteOffset": 94168,
      "componentType": 5126,
      "count": 93,
      "max": [
        1.2743959426879883,
        0.9874771237373352
      ],
      "min": [
        0.07421875,
        0.00390625
      ],
      "type": "VEC2"
    },
    {
      "bufferView": 0,
      "byteOffset": 124740,
      "componentType": 5125,
      "count": 222,
      "type": "SCALAR"
    },
    {
      "bufferView": 2,
      "byteOffset": 284736,
      "componentType": 5126,
      "count": 4393,
      "max": [
        0.04527202621102333,
        0.019103942438960075,
        0.134202778339386
      ],
      "min": [
        -0.12460684776306152,
        -0.01910397969186306,
        -0.007443774491548538
      ],
      "type": "VEC3"
    },
    {
      "bufferView": 2,
      "byteOffset": 337452,
      "componentType": 5126,
      "count": 4393,
      "max": [
        1.0,
        1.0,
        1.0
      ],
      "min": [
        -1.0,
        -1.0,
        -1.0
      ],
      "type": "VEC3"
    },
    {
      "bufferView": 3,
      "byteOffset": 189824,
      "componentType": 5126,
      "count": 4393,
      "max": [
        1.0,
        1.0,
        1.0,
        1.0
      ],
      "min": [
        -1.0,
        -1.0,
        -1.0,
        -1.0
      ],
      "type": "VEC4"
    },
    {
      "bufferView": 1,
      "byteOffset": 94912,
      "componentType": 5126,
      "count": 4393,
      "max": [
        1.8888074159622192,
        0.9950286149978638
      ],
      "min": [
        0.00390625,
        0.0010892597492784262
      ],
      "type": "VEC2"
    },
    {
      "bufferView": 0,
      "byteOffset": 125628,
      "componentType": 5125,
      "count": 12375,
      "type": "SCALAR"
    }
  ],
  "asset": {
    "extras": {
      "author": "Valery Kharitonov (https://sketchfab.com/KJLOYH)",
      "license": "CC-BY-4.0 (http://creativecommons.org/licenses/by/4.0/)",
      "source": "https://sketchfab.com/3d-models/emp-handgun-2266cac51c374b1e80934431052c8e1c",
      "title": "EMP Handgun"
    },
    "generator": "Sketchfab-12.34.0",
    "version": "2.0"
  },
  "bufferViews": [
    {
      "buffer": 0,
      "byteLength": 175128,
      "name": "floatBufferViews",
      "target": 34963
    },
    {
      "buffer": 0,
      "byteLength": 130056,
      "byteOffset": 175128,
      "byteStride": 8,
      "name": "floatBufferViews",
      "target": 34962
    },
    {
      "buffer": 0,
      "byteLength": 390168,
      "byteOffset": 305184,
      "byteStride": 12,
      "name": "floatBufferViews",
      "target": 34962
    },
    {
      "buffer": 0,
      "byteLength": 260112,
      "byteOffset": 695352,
      "byteStride": 16,
      "name": "floatBufferViews",
      "target": 34962
    }
  ],
  "buffers": [
    {
      "byteLength": 955464,
      "uri": "scene.bin"
    }
  ],
  "images": [
    {
      "uri": "textures/EMP_Handgun1_baseColor.png"
    },
    {
      "uri": "textures/EMP_Handgun1_metallicRoughness.png"
    },
    {
      "uri": "textures/EMP_Handgun1_emissive.png"
    },
    {
      "uri": "textures/EMP_Handgun1_normal.png"
    },
    {
      "uri": "textures/EMP_Handgun2_baseColor.png"
    },
    {
      "uri": "textures/EMP_Handgun2_metallicRoughness.png"
    },
    {
      "uri": "textures/EMP_Handgun2_normal.png"
    }
  ],
  "materials": [
    {
      "doubleSided": true,
      "emissiveFactor": [
        1.0,
        1.0,
        1.0
      ],
      "emissiveTexture": {
        "index": 2
      },
      "name": "EMP_Handgun1",
      "normalTexture": {
        "index": 3
      },
      "occlusionTexture": {
        "index": 1
      },
      "pbrMetallicRoughness": {
        "baseColorTexture": {
          "index": 0
        },
        "metallicRoughnessTexture": {
          "index": 1
        }
      }
    },
    {
      "doubleSided": true,
      "name": "EMP_Handgun2",
      "normalTexture": {
        "index": 6
      },
      "occlusionTexture": {
        "index": 5
      },
      "pbrMetallicRoughness": {
        "baseColorTexture": {
          "index": 4
        },
        "metallicRoughnessTexture": {
          "index": 5
        }
      }
    }
  ],
  "meshes": [
    {
      "name": "MainGun_low_EMP_Handgun1_0",
      "primitives": [
        {
          "attributes": {
            "NORMAL": 1,
            "POSITION": 0,
            "TANGENT": 2,
            "TEXCOORD_0": 3
          },
          "indices": 4,
          "material": 0,
          "mode": 4
        }
      ]
    },
    {
      "name": "Muzzle_low_EMP_Handgun1_0",
      "primitives": [
        {
          "attributes": {
            "NORMAL": 6,
            "POSITION": 5,
            "TANGENT": 7,
            "TEXCOORD_0": 8
          },
          "indices": 9,
          "material": 0,
          "mode": 4
        }
      ]
    },
    {
      "name": "Magazine_low_EMP_Handgun2_0",
      "primitives": [
        {
          "attributes": {
            "NORMAL": 11,
            "POSITION": 10,
            "TANGENT": 12,
            "TEXCOORD_0": 13
          },
          "indices": 14,
          "material": 1,
          "mode": 4
        }
      ]
    },
    {
      "name": "Trigger_low_EMP_Handgun2_0",
      "primitives": [
        {
          "attributes": {
            "NORMAL": 16,
            "POSITION": 15,
            "TANGENT": 17,
            "TEXCOORD_0": 18
          },
          "indices": 19,
          "material": 1,
          "mode": 4
        }
      ]
    },
    {
      "name": "Handle_low_EMP_Handgun2_0",
      "primitives": [
        {
          "attributes": {
            "NORMAL": 21,
            "POSITION": 20,
            "TANGENT": 22,
            "TEXCOORD_0": 23
          },
          "indices": 24,
          "material": 1,
          "mode": 4
        }
      ]
    }
  ],
  "nodes": [
    {
      "children": [
        1
      ],
      "matrix": [
        1.0,
        0.0,
        0.0,
        0.0,
        0.0,
        2.220446049250313e-16,
        -1.0,
        0.0,
        0.0,
        1.0,
        2.220446049250313e-16,
        0.0,
        0.0,
        0.0,
        0.0,
        1.0
      ],
      "name": "Sketchfab_model"
    },
    {
      "children": [
        2
      ],
      "matrix": [
        0.009999999776482582,
        0.0,
        0.0,
        0.0,
        0.0,
        0.0,
        0.009999999776482582,
        0.0,
        0.0,
        -0.009999999776482582,
        0.0,
        0.0,
        0.0,
        0.0,
        0.0,
        1.0
      ],
      "name": "2d30ac4936754cd69b40eda19125cc23.fbx"
    },
    {
      "children": [
        3,
        5,
        7,
        9,
        11
      ],
      "name": "RootNode"
    },
    {
      "children": [
        4
      ],
      "matrix": [
        100.0,
        0.0,
        0.0,
        0.0,
        -0.0,
        -1.629206793918314e-05,
        -99.99999999999868,
        0.0,
        0.0,
        99.99999999999868,
        -1.629206793918314e-05,
        0.0,
        -5.152234077453613,
        15.469637870788574,
        1.1316642761230469,
        1.0
      ],
      "name": "MainGun_low"
    },
    {
      "mesh": 0,
      "name": "MainGun_low_EMP_Handgun1_0"
    },
    {
      "children": [
        6
      ],
      "matrix": [
        100.0,
        0.0,
        0.0,
        0.0,
        0.0,
        -1.629206793918314e-05,
        -99.99999999999868,
        0.0,
        0.0,
        99.99999999999868,
        -1.629206793918314e-05,
        0.0,
        1.4003933668136597,
        17.979679107666016,
        1.1317936182022095,
        1.0
      ],
      "name": "Muzzle_low"
    },
    {
      "mesh": 1,
      "name": "Muzzle_low_EMP_Handgun1_0"
    },
    {
      "children": [
        8
      ],
      "matrix": [
        100.0,
        0.0,
        0.0,
        0.0,
        0.0,
        -1.629206793918314e-05,
        -99.99999999999868,
        0.0,
        0.0,
        99.99999999999868,
        -1.629206793918314e-05,
        0.0,
        0.9936902523040771,
        1.401923656463623,
        1.1316665410995483,
        1.0
      ],
      "name": "Magazine_low"
    },
    {
      "mesh": 2,
      "name": "Magazine_low_EMP_Handgun2_0"
    },
    {
      "children": [
        10
      ],
      "matrix": [
        100.0,
        0.0,
        0.0,
        0.0,
        -0.0,
        -1.629206793918314e-05,
        -99.99999999999868,
        0.0,
        0.0,
        99.99999999999868,
        -1.629206793918314e-05,
        0.0,
        -8.527702331542969,
        13.074226379394531,
        1.1316663026809692,
        1.0
      ],
      "name": "Trigger_low"
    },
    {
      "mesh": 3,
      "name": "Trigger_low_EMP_Handgun2_0"
    },
    {
      "children": [
        12
      ],
      "matrix": [
        100.0,
        0.0,
        0.0,
        0.0,
        -0.0,
        -1.629206793918314e-05,
        -99.99999999999868,
        0.0,
        0.0,
        99.99999999999868,
        -1.629206793918314e-05,
        0.0,
        -0.8740823864936829,
        1.491721749305725,
        1.1316663026809692,
        1.0
      ],
      "name": "Handle_low"
    },
    {
      "mesh": 4,
      "name": "Handle_low_EMP_Handgun2_0"
    }
  ],
  "samplers": [
    {
      "magFilter": 9729,
      "minFilter": 9987,
      "wrapS": 10497,
      "wrapT": 10497
    }
  ],
  "scene": 0,
  "scenes": [
    {
      "name": "Sketchfab_Scene",
      "nodes": [
        0
      ]
    }
  ],
  "textures": [
    {
      "sampler": 0,
      "source": 0
    },
    {
      "sampler": 0,
      "source": 1
    },
    {
      "sampler": 0,
      "source": 2
    },
    {
      "sampler": 0,
      "source": 3
    },
    {
      "sampler": 0,
      "source": 4
    },
    {
      "sampler": 0,
      "source": 5
    },
    {
      "sampler": 0,
      "source": 6
    }
  ]
}
